<?xml version="1.0" standalone="no"?>
<!DOCTYPE svg PUBLIC "-//W3C//DTD SVG 20010904//EN"
 "http://www.w3.org/TR/2001/REC-SVG-20010904/DTD/svg10.dtd">
<svg version="1.0" xmlns="http://www.w3.org/2000/svg"
 width="600.000000pt" height="600.000000pt" viewBox="0 0 600.000000 600.000000"
 preserveAspectRatio="xMidYMid meet">

<g transform="translate(0.000000,600.000000) scale(0.100000,-0.100000)"
fill="#000000" stroke="none">
<path d="M2733 5929 c-976 -87 -1847 -655 -2322 -1515 -391 -706 -469 -1572
-211 -2343 145 -434 368 -798 694 -1129 673 -686 1628 -998 2576 -841 1007
167 1864 854 2243 1799 286 713 286 1487 0 2200 -136 339 -347 667 -603 934
-610 637 -1501 973 -2377 895z m-1258 -2037 c109 -33 262 -115 343 -182 144
-121 264 -311 308 -490 29 -115 27 -358 -4 -463 -93 -323 -324 -556 -647 -653
-88 -27 -98 -27 -404 -32 l-314 -4 154 156 153 156 111 0 c135 0 229 19 320
64 226 113 356 333 343 583 -13 254 -169 464 -408 550 -65 24 -94 28 -216 31
l-141 4 -154 154 -154 155 320 -4 c293 -3 326 -5 390 -25z m1173 12 c273 -56
516 -242 641 -491 176 -352 110 -778 -164 -1058 -125 -128 -259 -208 -430
-256 -73 -20 -106 -23 -390 -26 l-310 -4 155 155 155 156 105 0 c207 1 359 58
485 184 123 124 179 262 178 441 0 84 -5 113 -30 185 -55 161 -167 288 -316
359 -104 50 -160 61 -305 61 l-117 0 -155 155 -155 155 288 0 c224 0 305 -4
365 -16z m1207 -444 l460 -460 462 462 463 463 0 -928 0 -927 -155 0 -155 0 0
552 0 553 -308 -308 -307 -307 -468 468 -467 467 0 213 c0 116 3 212 8 212 4
0 214 -207 467 -460z"/>
</g>
</svg>
